<svg xmlns="http://www.w3.org/2000/svg" xmlns:xlink="http://www.w3.org/1999/xlink" viewBox="0 0 100 100" version="1.1">
    <defs>
        <linearGradient id="linear0" gradientUnits="userSpaceOnUse" x1="0" y1="0" x2="1" y2="0" gradientTransform="matrix(14.914062,0,0, -4.820312,2.5625,7.4375)">
            <stop offset="0" style="stop-color:rgb(93.72549%,66.666667%,25.882353%);stop-opacity:1;"/>
            <stop offset="0.25" style="stop-color:rgb(93.72549%,66.666667%,25.882353%);stop-opacity:0.501961;"/>
            <stop offset="1" style="stop-color:rgb(93.72549%,66.666667%,25.882353%);stop-opacity:0;"/>
        </linearGradient>
        <linearGradient id="linear1" gradientUnits="userSpaceOnUse" x1="0" y1="0" x2="1" y2="0" gradientTransform="matrix(4.914062,0,0,-4.820312,12.5625,7.4375)">
            <stop offset="0" style="stop-color:rgb(93.72549%,66.666667%,25.882353%);stop-opacity:1;"/>
            <stop offset="0.25" style="stop-color:rgb(93.72549%,66.666667%,25.882353%);stop-opacity:0.501961;"/>
            <stop offset="1" style="stop-color:rgb(93.72549%,66.666667%,25.882353%);stop-opacity:0;"/>
        </linearGradient>
        <linearGradient id="linear2" gradientUnits="userSpaceOnUse" x1="0" y1="0" x2="1" y2="0" gradientTransform="matrix(94.914062,0,0,-94.820312,2.5625,97.4375)">
            <stop offset="0" style="stop-color:rgb(93.72549%,66.666667%,25.882353%);stop-opacity:1;"/>
            <stop offset="0.25" style="stop-color:rgb(93.72549%,66.666667%,25.882353%);stop-opacity:0.501961;"/>
            <stop offset="1" style="stop-color:rgb(93.72549%,66.666667%,25.882353%);stop-opacity:0;"/>
        </linearGradient>
    </defs>
    <path d="M 4.296875 2.617188 C 3.476562 2.890625 2.734375 3.71875 2.5625 4.554688 C 2.226562 6.164062 3.835938 7.773438 5.445312 7.4375 C 6.65625 7.1875 7.59375 5.953125 7.476562 4.789062 C 7.390625 3.96875 6.773438 3.125 5.992188 2.742188 C 5.515625 2.515625 4.78125 2.460938 4.296875 2.617188 Z M 14.296875 2.617188 C 13.117188 3.007812 12.320312 4.304688 12.5625 5.445312 C 12.757812 6.375 13.625 7.242188 14.546875 7.4375 C 16.0625 7.757812 17.632812 6.328125 17.476562 4.789062 C 17.390625 3.96875 16.773438 3.125 15.992188 2.742188 C 15.515625 2.515625 14.78125 2.460938 14.296875 2.617188 Z M 14.296875 2.617188 "/>
    <path d="M 14.296875 2.617188 C 13.117188 3.007812 12.320312 4.304688 12.5625 5.445312 C 12.757812 6.375 13.625 7.242188 14.546875 7.4375 C 16.0625 7.757812 17.632812 6.328125 17.476562 4.789062 C 17.390625 3.96875 16.773438 3.125 15.992188 2.742188 C 15.515625 2.515625 14.78125 2.460938 14.296875 2.617188 Z M 14.296875 2.617188 "/>
    <path d="M 14.296875 2.617188 C 13.117188 3.007812 12.320312 4.304688 12.5625 5.445312 C 12.757812 6.375 13.625 7.242188 14.546875 7.4375 C 16.0625 7.757812 17.632812 6.328125 17.476562 4.789062 C 17.390625 3.96875 16.773438 3.125 15.992188 2.742188 C 15.515625 2.515625 14.78125 2.460938 14.296875 2.617188 Z M 24.296875 2.617188 C 23.476562 2.890625 22.734375 3.71875 22.5625 4.554688 C 22.226562 6.164062 23.835938 7.773438 25.445312 7.4375 C 26.65625 7.1875 27.59375 5.953125 27.476562 4.789062 C 27.390625 3.96875 26.773438 3.125 25.992188 2.742188 C 25.515625 2.515625 24.78125 2.460938 24.296875 2.617188 Z M 34.296875 2.617188 C 33.476562 2.890625 32.734375 3.71875 32.5625 4.554688 C 32.226562 6.164062 33.835938 7.773438 35.445312 7.4375 C 36.65625 7.1875 37.59375 5.953125 37.476562 4.789062 C 37.390625 3.96875 36.773438 3.125 35.992188 2.742188 C 35.515625 2.515625 34.78125 2.460938 34.296875 2.617188 Z M 44.296875 2.617188 C 43.476562 2.890625 42.734375 3.71875 42.5625 4.554688 C 42.226562 6.164062 43.835938 7.773438 45.445312 7.4375 C 46.65625 7.1875 47.59375 5.953125 47.476562 4.789062 C 47.390625 3.96875 46.773438 3.125 45.992188 2.742188 C 45.515625 2.515625 44.78125 2.460938 44.296875 2.617188 Z M 54.296875 2.617188 C 53.476562 2.890625 52.734375 3.71875 52.5625 4.554688 C 52.226562 6.164062 53.835938 7.773438 55.445312 7.4375 C 56.65625 7.1875 57.59375 5.953125 57.476562 4.789062 C 57.390625 3.96875 56.773438 3.125 55.992188 2.742188 C 55.515625 2.515625 54.78125 2.460938 54.296875 2.617188 Z M 64.296875 2.617188 C 63.476562 2.890625 62.734375 3.71875 62.5625 4.554688 C 62.226562 6.164062 63.835938 7.773438 65.445312 7.4375 C 66.65625 7.1875 67.59375 5.953125 67.476562 4.789062 C 67.390625 3.96875 66.773438 3.125 65.992188 2.742188 C 65.515625 2.515625 64.78125 2.460938 64.296875 2.617188 Z M 74.296875 2.617188 C 73.476562 2.890625 72.734375 3.71875 72.5625 4.554688 C 72.226562 6.164062 73.835938 7.773438 75.445312 7.4375 C 76.65625 7.1875 77.59375 5.953125 77.476562 4.789062 C 77.390625 3.96875 76.773438 3.125 75.992188 2.742188 C 75.515625 2.515625 74.78125 2.460938 74.296875 2.617188 Z M 84.296875 2.617188 C 83.476562 2.890625 82.734375 3.71875 82.5625 4.554688 C 82.367188 5.46875 82.8125 6.460938 83.671875 7.046875 C 84.507812 7.625 85.460938 7.632812 86.304688 7.070312 C 87.6875 6.148438 87.875 4.429688 86.71875 3.28125 C 86.054688 2.609375 85.101562 2.351562 84.296875 2.617188 Z M 94.296875 2.617188 C 93.476562 2.890625 92.734375 3.71875 92.5625 4.554688 C 92.367188 5.46875 92.8125 6.460938 93.671875 7.046875 C 94.507812 7.625 95.460938 7.632812 96.304688 7.070312 C 97.6875 6.148438 97.875 4.429688 96.71875 3.28125 C 96.054688 2.609375 95.101562 2.351562 94.296875 2.617188 Z M 4.296875 12.617188 C 3.476562 12.890625 2.734375 13.71875 2.5625 14.554688 C 2.226562 16.164062 3.835938 17.773438 5.445312 17.4375 C 6.65625 17.1875 7.59375 15.953125 7.476562 14.789062 C 7.390625 13.96875 6.773438 13.125 5.992188 12.742188 C 5.515625 12.515625 4.78125 12.460938 4.296875 12.617188 Z M 14.296875 12.617188 C 13.117188 13.007812 12.320312 14.304688 12.5625 15.445312 C 12.757812 16.375 13.625 17.242188 14.546875 17.4375 C 16.0625 17.757812 17.632812 16.328125 17.476562 14.789062 C 17.390625 13.96875 16.773438 13.125 15.992188 12.742188 C 15.515625 12.515625 14.78125 12.460938 14.296875 12.617188 Z M 24.296875 12.617188 C 23.476562 12.890625 22.734375 13.71875 22.5625 14.554688 C 22.226562 16.164062 23.835938 17.773438 25.445312 17.4375 C 26.65625 17.1875 27.59375 15.953125 27.476562 14.789062 C 27.390625 13.96875 26.773438 13.125 25.992188 12.742188 C 25.515625 12.515625 24.78125 12.460938 24.296875 12.617188 Z M 34.296875 12.617188 C 33.476562 12.890625 32.734375 13.71875 32.5625 14.554688 C 32.226562 16.164062 33.835938 17.773438 35.445312 17.4375 C 36.65625 17.1875 37.59375 15.953125 37.476562 14.789062 C 37.390625 13.96875 36.773438 13.125 35.992188 12.742188 C 35.515625 12.515625 34.78125 12.460938 34.296875 12.617188 Z M 44.296875 12.617188 C 43.476562 12.890625 42.734375 13.71875 42.5625 14.554688 C 42.226562 16.164062 43.835938 17.773438 45.445312 17.4375 C 46.65625 17.1875 47.59375 15.953125 47.476562 14.789062 C 47.390625 13.96875 46.773438 13.125 45.992188 12.742188 C 45.515625 12.515625 44.78125 12.460938 44.296875 12.617188 Z M 54.296875 12.617188 C 53.476562 12.890625 52.734375 13.71875 52.5625 14.554688 C 52.226562 16.164062 53.835938 17.773438 55.445312 17.4375 C 56.65625 17.1875 57.59375 15.953125 57.476562 14.789062 C 57.390625 13.96875 56.773438 13.125 55.992188 12.742188 C 55.515625 12.515625 54.78125 12.460938 54.296875 12.617188 Z M 64.296875 12.617188 C 63.476562 12.890625 62.734375 13.71875 62.5625 14.554688 C 62.226562 16.164062 63.835938 17.773438 65.445312 17.4375 C 66.65625 17.1875 67.59375 15.953125 67.476562 14.789062 C 67.390625 13.96875 66.773438 13.125 65.992188 12.742188 C 65.515625 12.515625 64.78125 12.460938 64.296875 12.617188 Z M 74.296875 12.617188 C 73.476562 12.890625 72.734375 13.71875 72.5625 14.554688 C 72.226562 16.164062 73.835938 17.773438 75.445312 17.4375 C 76.65625 17.1875 77.59375 15.953125 77.476562 14.789062 C 77.390625 13.96875 76.773438 13.125 75.992188 12.742188 C 75.515625 12.515625 74.78125 12.460938 74.296875 12.617188 Z M 84.296875 12.617188 C 83.476562 12.890625 82.734375 13.71875 82.5625 14.554688 C 82.367188 15.46875 82.8125 16.460938 83.671875 17.046875 C 84.507812 17.625 85.460938 17.632812 86.304688 17.070312 C 87.6875 16.148438 87.875 14.429688 86.71875 13.28125 C 86.054688 12.609375 85.101562 12.351562 84.296875 12.617188 Z M 94.296875 12.617188 C 93.476562 12.890625 92.734375 13.71875 92.5625 14.554688 C 92.367188 15.46875 92.8125 16.460938 93.671875 17.046875 C 94.507812 17.625 95.460938 17.632812 96.304688 17.070312 C 97.6875 16.148438 97.875 14.429688 96.71875 13.28125 C 96.054688 12.609375 95.101562 12.351562 94.296875 12.617188 Z M 4.296875 22.617188 C 3.476562 22.890625 2.734375 23.71875 2.5625 24.554688 C 2.226562 26.164062 3.835938 27.773438 5.445312 27.4375 C 6.65625 27.1875 7.59375 25.953125 7.476562 24.789062 C 7.390625 23.96875 6.773438 23.125 5.992188 22.742188 C 5.515625 22.515625 4.78125 22.460938 4.296875 22.617188 Z M 14.296875 22.617188 C 13.476562 22.890625 12.734375 23.71875 12.5625 24.554688 C 12.226562 26.164062 13.835938 27.773438 15.445312 27.4375 C 16.65625 27.1875 17.59375 25.953125 17.476562 24.789062 C 17.390625 23.96875 16.773438 23.125 15.992188 22.742188 C 15.515625 22.515625 14.78125 22.460938 14.296875 22.617188 Z M 24.296875 22.617188 C 23.476562 22.890625 22.734375 23.71875 22.5625 24.554688 C 22.226562 26.164062 23.835938 27.773438 25.445312 27.4375 C 26.65625 27.1875 27.59375 25.953125 27.476562 24.789062 C 27.390625 23.96875 26.773438 23.125 25.992188 22.742188 C 25.515625 22.515625 24.78125 22.460938 24.296875 22.617188 Z M 34.296875 22.617188 C 33.476562 22.890625 32.734375 23.71875 32.5625 24.554688 C 32.226562 26.164062 33.835938 27.773438 35.445312 27.4375 C 36.65625 27.1875 37.59375 25.953125 37.476562 24.789062 C 37.390625 23.96875 36.773438 23.125 35.992188 22.742188 C 35.515625 22.515625 34.78125 22.460938 34.296875 22.617188 Z M 44.296875 22.617188 C 43.476562 22.890625 42.734375 23.71875 42.5625 24.554688 C 42.226562 26.164062 43.835938 27.773438 45.445312 27.4375 C 46.65625 27.1875 47.59375 25.953125 47.476562 24.789062 C 47.390625 23.96875 46.773438 23.125 45.992188 22.742188 C 45.515625 22.515625 44.78125 22.460938 44.296875 22.617188 Z M 54.296875 22.617188 C 53.476562 22.890625 52.734375 23.71875 52.5625 24.554688 C 52.226562 26.164062 53.835938 27.773438 55.445312 27.4375 C 56.65625 27.1875 57.59375 25.953125 57.476562 24.789062 C 57.390625 23.96875 56.773438 23.125 55.992188 22.742188 C 55.515625 22.515625 54.78125 22.460938 54.296875 22.617188 Z M 64.296875 22.617188 C 63.476562 22.890625 62.734375 23.71875 62.5625 24.554688 C 62.226562 26.164062 63.835938 27.773438 65.445312 27.4375 C 66.65625 27.1875 67.59375 25.953125 67.476562 24.789062 C 67.390625 23.96875 66.773438 23.125 65.992188 22.742188 C 65.515625 22.515625 64.78125 22.460938 64.296875 22.617188 Z M 74.296875 22.617188 C 73.476562 22.890625 72.734375 23.71875 72.5625 24.554688 C 72.226562 26.164062 73.835938 27.773438 75.445312 27.4375 C 76.65625 27.1875 77.59375 25.953125 77.476562 24.789062 C 77.390625 23.96875 76.773438 23.125 75.992188 22.742188 C 75.515625 22.515625 74.78125 22.460938 74.296875 22.617188 Z M 84.296875 22.617188 C 83.476562 22.890625 82.734375 23.71875 82.5625 24.554688 C 82.226562 26.164062 83.835938 27.773438 85.445312 27.4375 C 86.65625 27.1875 87.59375 25.953125 87.476562 24.789062 C 87.390625 23.96875 86.773438 23.125 85.992188 22.742188 C 85.515625 22.515625 84.78125 22.460938 84.296875 22.617188 Z M 94.296875 22.617188 C 93.476562 22.890625 92.734375 23.71875 92.5625 24.554688 C 92.226562 26.164062 93.835938 27.773438 95.445312 27.4375 C 96.65625 27.1875 97.59375 25.953125 97.476562 24.789062 C 97.390625 23.96875 96.773438 23.125 95.992188 22.742188 C 95.515625 22.515625 94.78125 22.460938 94.296875 22.617188 Z M 4.296875 32.617188 C 3.476562 32.890625 2.734375 33.71875 2.5625 34.554688 C 2.226562 36.164062 3.835938 37.773438 5.445312 37.4375 C 6.65625 37.1875 7.59375 35.953125 7.476562 34.789062 C 7.390625 33.96875 6.773438 33.125 5.992188 32.742188 C 5.515625 32.515625 4.78125 32.460938 4.296875 32.617188 Z M 14.296875 32.617188 C 13.476562 32.890625 12.734375 33.71875 12.5625 34.554688 C 12.226562 36.164062 13.835938 37.773438 15.445312 37.4375 C 16.65625 37.1875 17.59375 35.953125 17.476562 34.789062 C 17.390625 33.96875 16.773438 33.125 15.992188 32.742188 C 15.515625 32.515625 14.78125 32.460938 14.296875 32.617188 Z M 24.296875 32.617188 C 23.476562 32.890625 22.734375 33.71875 22.5625 34.554688 C 22.226562 36.164062 23.835938 37.773438 25.445312 37.4375 C 26.65625 37.1875 27.59375 35.953125 27.476562 34.789062 C 27.390625 33.96875 26.773438 33.125 25.992188 32.742188 C 25.515625 32.515625 24.78125 32.460938 24.296875 32.617188 Z M 34.296875 32.617188 C 33.476562 32.890625 32.734375 33.71875 32.5625 34.554688 C 32.226562 36.164062 33.835938 37.773438 35.445312 37.4375 C 36.65625 37.1875 37.59375 35.953125 37.476562 34.789062 C 37.390625 33.96875 36.773438 33.125 35.992188 32.742188 C 35.515625 32.515625 34.78125 32.460938 34.296875 32.617188 Z M 44.296875 32.617188 C 43.476562 32.890625 42.734375 33.71875 42.5625 34.554688 C 42.226562 36.164062 43.835938 37.773438 45.445312 37.4375 C 46.65625 37.1875 47.59375 35.953125 47.476562 34.789062 C 47.390625 33.96875 46.773438 33.125 45.992188 32.742188 C 45.515625 32.515625 44.78125 32.460938 44.296875 32.617188 Z M 54.296875 32.617188 C 53.476562 32.890625 52.734375 33.71875 52.5625 34.554688 C 52.226562 36.164062 53.835938 37.773438 55.445312 37.4375 C 56.65625 37.1875 57.59375 35.953125 57.476562 34.789062 C 57.390625 33.96875 56.773438 33.125 55.992188 32.742188 C 55.515625 32.515625 54.78125 32.460938 54.296875 32.617188 Z M 64.296875 32.617188 C 63.476562 32.890625 62.734375 33.71875 62.5625 34.554688 C 62.226562 36.164062 63.835938 37.773438 65.445312 37.4375 C 66.65625 37.1875 67.59375 35.953125 67.476562 34.789062 C 67.390625 33.96875 66.773438 33.125 65.992188 32.742188 C 65.515625 32.515625 64.78125 32.460938 64.296875 32.617188 Z M 74.296875 32.617188 C 73.476562 32.890625 72.734375 33.71875 72.5625 34.554688 C 72.226562 36.164062 73.835938 37.773438 75.445312 37.4375 C 76.65625 37.1875 77.59375 35.953125 77.476562 34.789062 C 77.390625 33.96875 76.773438 33.125 75.992188 32.742188 C 75.515625 32.515625 74.78125 32.460938 74.296875 32.617188 Z M 84.296875 32.617188 C 83.476562 32.890625 82.734375 33.71875 82.5625 34.554688 C 82.226562 36.164062 83.835938 37.773438 85.445312 37.4375 C 86.65625 37.1875 87.59375 35.953125 87.476562 34.789062 C 87.390625 33.96875 86.773438 33.125 85.992188 32.742188 C 85.515625 32.515625 84.78125 32.460938 84.296875 32.617188 Z M 94.296875 32.617188 C 93.476562 32.890625 92.734375 33.71875 92.5625 34.554688 C 92.226562 36.164062 93.835938 37.773438 95.445312 37.4375 C 96.65625 37.1875 97.59375 35.953125 97.476562 34.789062 C 97.390625 33.96875 96.773438 33.125 95.992188 32.742188 C 95.515625 32.515625 94.78125 32.460938 94.296875 32.617188 Z M 4.296875 42.617188 C 3.476562 42.890625 2.734375 43.71875 2.5625 44.554688 C 2.226562 46.164062 3.835938 47.773438 5.445312 47.4375 C 6.65625 47.1875 7.59375 45.953125 7.476562 44.789062 C 7.390625 43.96875 6.773438 43.125 5.992188 42.742188 C 5.515625 42.515625 4.78125 42.460938 4.296875 42.617188 Z M 14.296875 42.617188 C 13.476562 42.890625 12.734375 43.71875 12.5625 44.554688 C 12.226562 46.164062 13.835938 47.773438 15.445312 47.4375 C 16.65625 47.1875 17.59375 45.953125 17.476562 44.789062 C 17.390625 43.96875 16.773438 43.125 15.992188 42.742188 C 15.515625 42.515625 14.78125 42.460938 14.296875 42.617188 Z M 24.296875 42.617188 C 23.476562 42.890625 22.734375 43.71875 22.5625 44.554688 C 22.226562 46.164062 23.835938 47.773438 25.445312 47.4375 C 26.65625 47.1875 27.59375 45.953125 27.476562 44.789062 C 27.390625 43.96875 26.773438 43.125 25.992188 42.742188 C 25.515625 42.515625 24.78125 42.460938 24.296875 42.617188 Z M 34.296875 42.617188 C 33.476562 42.890625 32.734375 43.71875 32.5625 44.554688 C 32.226562 46.164062 33.835938 47.773438 35.445312 47.4375 C 36.65625 47.1875 37.59375 45.953125 37.476562 44.789062 C 37.390625 43.96875 36.773438 43.125 35.992188 42.742188 C 35.515625 42.515625 34.78125 42.460938 34.296875 42.617188 Z M 44.296875 42.617188 C 43.476562 42.890625 42.734375 43.71875 42.5625 44.554688 C 42.226562 46.164062 43.835938 47.773438 45.445312 47.4375 C 46.65625 47.1875 47.59375 45.953125 47.476562 44.789062 C 47.390625 43.96875 46.773438 43.125 45.992188 42.742188 C 45.515625 42.515625 44.78125 42.460938 44.296875 42.617188 Z M 54.296875 42.617188 C 53.476562 42.890625 52.734375 43.71875 52.5625 44.554688 C 52.226562 46.164062 53.835938 47.773438 55.445312 47.4375 C 56.65625 47.1875 57.59375 45.953125 57.476562 44.789062 C 57.390625 43.96875 56.773438 43.125 55.992188 42.742188 C 55.515625 42.515625 54.78125 42.460938 54.296875 42.617188 Z M 64.296875 42.617188 C 63.476562 42.890625 62.734375 43.71875 62.5625 44.554688 C 62.226562 46.164062 63.835938 47.773438 65.445312 47.4375 C 66.65625 47.1875 67.59375 45.953125 67.476562 44.789062 C 67.390625 43.96875 66.773438 43.125 65.992188 42.742188 C 65.515625 42.515625 64.78125 42.460938 64.296875 42.617188 Z M 74.296875 42.617188 C 73.476562 42.890625 72.734375 43.71875 72.5625 44.554688 C 72.226562 46.164062 73.835938 47.773438 75.445312 47.4375 C 76.65625 47.1875 77.59375 45.953125 77.476562 44.789062 C 77.390625 43.96875 76.773438 43.125 75.992188 42.742188 C 75.515625 42.515625 74.78125 42.460938 74.296875 42.617188 Z M 84.296875 42.617188 C 83.476562 42.890625 82.734375 43.71875 82.5625 44.554688 C 82.226562 46.164062 83.835938 47.773438 85.445312 47.4375 C 86.65625 47.1875 87.59375 45.953125 87.476562 44.789062 C 87.390625 43.96875 86.773438 43.125 85.992188 42.742188 C 85.515625 42.515625 84.78125 42.460938 84.296875 42.617188 Z M 94.296875 42.617188 C 93.476562 42.890625 92.734375 43.71875 92.5625 44.554688 C 92.226562 46.164062 93.835938 47.773438 95.445312 47.4375 C 96.65625 47.1875 97.59375 45.953125 97.476562 44.789062 C 97.390625 43.96875 96.773438 43.125 95.992188 42.742188 C 95.515625 42.515625 94.78125 42.460938 94.296875 42.617188 Z M 4.296875 52.617188 C 3.476562 52.890625 2.734375 53.71875 2.5625 54.554688 C 2.226562 56.164062 3.835938 57.773438 5.445312 57.4375 C 6.65625 57.1875 7.59375 55.953125 7.476562 54.789062 C 7.390625 53.96875 6.773438 53.125 5.992188 52.742188 C 5.515625 52.515625 4.78125 52.460938 4.296875 52.617188 Z M 14.296875 52.617188 C 13.476562 52.890625 12.734375 53.71875 12.5625 54.554688 C 12.226562 56.164062 13.835938 57.773438 15.445312 57.4375 C 16.65625 57.1875 17.59375 55.953125 17.476562 54.789062 C 17.390625 53.96875 16.773438 53.125 15.992188 52.742188 C 15.515625 52.515625 14.78125 52.460938 14.296875 52.617188 Z M 24.296875 52.617188 C 23.476562 52.890625 22.734375 53.71875 22.5625 54.554688 C 22.226562 56.164062 23.835938 57.773438 25.445312 57.4375 C 26.65625 57.1875 27.59375 55.953125 27.476562 54.789062 C 27.390625 53.96875 26.773438 53.125 25.992188 52.742188 C 25.515625 52.515625 24.78125 52.460938 24.296875 52.617188 Z M 34.296875 52.617188 C 33.476562 52.890625 32.734375 53.71875 32.5625 54.554688 C 32.226562 56.164062 33.835938 57.773438 35.445312 57.4375 C 36.65625 57.1875 37.59375 55.953125 37.476562 54.789062 C 37.390625 53.96875 36.773438 53.125 35.992188 52.742188 C 35.515625 52.515625 34.78125 52.460938 34.296875 52.617188 Z M 44.296875 52.617188 C 43.476562 52.890625 42.734375 53.71875 42.5625 54.554688 C 42.226562 56.164062 43.835938 57.773438 45.445312 57.4375 C 46.65625 57.1875 47.59375 55.953125 47.476562 54.789062 C 47.390625 53.96875 46.773438 53.125 45.992188 52.742188 C 45.515625 52.515625 44.78125 52.460938 44.296875 52.617188 Z M 54.296875 52.617188 C 53.476562 52.890625 52.734375 53.71875 52.5625 54.554688 C 52.226562 56.164062 53.835938 57.773438 55.445312 57.4375 C 56.65625 57.1875 57.59375 55.953125 57.476562 54.789062 C 57.390625 53.96875 56.773438 53.125 55.992188 52.742188 C 55.515625 52.515625 54.78125 52.460938 54.296875 52.617188 Z M 64.296875 52.617188 C 63.476562 52.890625 62.734375 53.71875 62.5625 54.554688 C 62.226562 56.164062 63.835938 57.773438 65.445312 57.4375 C 66.65625 57.1875 67.59375 55.953125 67.476562 54.789062 C 67.390625 53.96875 66.773438 53.125 65.992188 52.742188 C 65.515625 52.515625 64.78125 52.460938 64.296875 52.617188 Z M 74.296875 52.617188 C 73.476562 52.890625 72.734375 53.71875 72.5625 54.554688 C 72.226562 56.164062 73.835938 57.773438 75.445312 57.4375 C 76.65625 57.1875 77.59375 55.953125 77.476562 54.789062 C 77.390625 53.96875 76.773438 53.125 75.992188 52.742188 C 75.515625 52.515625 74.78125 52.460938 74.296875 52.617188 Z M 84.296875 52.617188 C 83.476562 52.890625 82.734375 53.71875 82.5625 54.554688 C 82.226562 56.164062 83.835938 57.773438 85.445312 57.4375 C 86.65625 57.1875 87.59375 55.953125 87.476562 54.789062 C 87.390625 53.96875 86.773438 53.125 85.992188 52.742188 C 85.515625 52.515625 84.78125 52.460938 84.296875 52.617188 Z M 94.296875 52.617188 C 93.476562 52.890625 92.734375 53.71875 92.5625 54.554688 C 92.226562 56.164062 93.835938 57.773438 95.445312 57.4375 C 96.65625 57.1875 97.59375 55.953125 97.476562 54.789062 C 97.390625 53.96875 96.773438 53.125 95.992188 52.742188 C 95.515625 52.515625 94.78125 52.460938 94.296875 52.617188 Z M 4.296875 62.617188 C 3.476562 62.890625 2.734375 63.71875 2.5625 64.554688 C 2.226562 66.164062 3.835938 67.773438 5.445312 67.4375 C 6.65625 67.1875 7.59375 65.953125 7.476562 64.789062 C 7.390625 63.96875 6.773438 63.125 5.992188 62.742188 C 5.515625 62.515625 4.78125 62.460938 4.296875 62.617188 Z M 14.296875 62.617188 C 13.476562 62.890625 12.734375 63.71875 12.5625 64.554688 C 12.226562 66.164062 13.835938 67.773438 15.445312 67.4375 C 16.65625 67.1875 17.59375 65.953125 17.476562 64.789062 C 17.390625 63.96875 16.773438 63.125 15.992188 62.742188 C 15.515625 62.515625 14.78125 62.460938 14.296875 62.617188 Z M 24.296875 62.617188 C 23.476562 62.890625 22.734375 63.71875 22.5625 64.554688 C 22.367188 65.46875 22.8125 66.460938 23.671875 67.046875 C 24.507812 67.625 25.460938 67.632812 26.304688 67.070312 C 27.6875 66.148438 27.875 64.429688 26.71875 63.28125 C 26.054688 62.609375 25.101562 62.351562 24.296875 62.617188 Z M 34.296875 62.617188 C 33.476562 62.890625 32.734375 63.71875 32.5625 64.554688 C 32.367188 65.46875 32.8125 66.460938 33.671875 67.046875 C 34.507812 67.625 35.460938 67.632812 36.304688 67.070312 C 37.6875 66.148438 37.875 64.429688 36.71875 63.28125 C 36.054688 62.609375 35.101562 62.351562 34.296875 62.617188 Z M 44.296875 62.617188 C 43.117188 63.007812 42.320312 64.304688 42.5625 65.445312 C 42.757812 66.375 43.625 67.242188 44.554688 67.4375 C 46.0625 67.757812 47.632812 66.328125 47.476562 64.789062 C 47.390625 63.96875 46.773438 63.125 45.992188 62.742188 C 45.515625 62.515625 44.78125 62.460938 44.296875 62.617188 Z M 54.296875 62.617188 C 53.117188 63.007812 52.320312 64.304688 52.5625 65.445312 C 52.757812 66.375 53.625 67.242188 54.554688 67.4375 C 56.0625 67.757812 57.632812 66.328125 57.476562 64.789062 C 57.390625 63.96875 56.773438 63.125 55.992188 62.742188 C 55.515625 62.515625 54.78125 62.460938 54.296875 62.617188 Z M 64.296875 62.617188 C 63.117188 63.007812 62.320312 64.304688 62.5625 65.445312 C 62.757812 66.375 63.625 67.242188 64.554688 67.4375 C 66.0625 67.757812 67.632812 66.328125 67.476562 64.789062 C 67.390625 63.96875 66.773438 63.125 65.992188 62.742188 C 65.515625 62.515625 64.78125 62.460938 64.296875 62.617188 Z M 74.296875 62.617188 C 73.117188 63.007812 72.320312 64.304688 72.5625 65.445312 C 72.757812 66.375 73.625 67.242188 74.554688 67.4375 C 76.0625 67.757812 77.632812 66.328125 77.476562 64.789062 C 77.390625 63.96875 76.773438 63.125 75.992188 62.742188 C 75.515625 62.515625 74.78125 62.460938 74.296875 62.617188 Z M 84.296875 62.617188 C 83.476562 62.890625 82.734375 63.71875 82.5625 64.554688 C 82.226562 66.164062 83.835938 67.773438 85.445312 67.4375 C 86.65625 67.1875 87.59375 65.953125 87.476562 64.789062 C 87.390625 63.96875 86.773438 63.125 85.992188 62.742188 C 85.515625 62.515625 84.78125 62.460938 84.296875 62.617188 Z M 94.296875 62.617188 C 93.476562 62.890625 92.734375 63.71875 92.5625 64.554688 C 92.226562 66.164062 93.835938 67.773438 95.445312 67.4375 C 96.65625 67.1875 97.59375 65.953125 97.476562 64.789062 C 97.390625 63.96875 96.773438 63.125 95.992188 62.742188 C 95.515625 62.515625 94.78125 62.460938 94.296875 62.617188 Z M 4.296875 72.617188 C 3.476562 72.890625 2.734375 73.71875 2.5625 74.554688 C 2.226562 76.164062 3.835938 77.773438 5.445312 77.4375 C 6.65625 77.1875 7.59375 75.953125 7.476562 74.789062 C 7.390625 73.96875 6.773438 73.125 5.992188 72.742188 C 5.515625 72.515625 4.78125 72.460938 4.296875 72.617188 Z M 14.296875 72.617188 C 13.476562 72.890625 12.734375 73.71875 12.5625 74.554688 C 12.226562 76.164062 13.835938 77.773438 15.445312 77.4375 C 16.65625 77.1875 17.59375 75.953125 17.476562 74.789062 C 17.390625 73.96875 16.773438 73.125 15.992188 72.742188 C 15.515625 72.515625 14.78125 72.460938 14.296875 72.617188 Z M 24.296875 72.617188 C 23.476562 72.890625 22.734375 73.71875 22.5625 74.554688 C 22.367188 75.46875 22.8125 76.460938 23.671875 77.046875 C 24.507812 77.625 25.460938 77.632812 26.304688 77.070312 C 27.6875 76.148438 27.875 74.429688 26.71875 73.28125 C 26.054688 72.609375 25.101562 72.351562 24.296875 72.617188 Z M 34.296875 72.617188 C 33.476562 72.890625 32.734375 73.71875 32.5625 74.554688 C 32.367188 75.46875 32.8125 76.460938 33.671875 77.046875 C 34.507812 77.625 35.460938 77.632812 36.304688 77.070312 C 37.6875 76.148438 37.875 74.429688 36.71875 73.28125 C 36.054688 72.609375 35.101562 72.351562 34.296875 72.617188 Z M 44.296875 72.617188 C 43.117188 73.007812 42.320312 74.304688 42.5625 75.445312 C 42.757812 76.375 43.625 77.242188 44.554688 77.4375 C 46.0625 77.757812 47.632812 76.328125 47.476562 74.789062 C 47.390625 73.96875 46.773438 73.125 45.992188 72.742188 C 45.515625 72.515625 44.78125 72.460938 44.296875 72.617188 Z M 54.296875 72.617188 C 53.117188 73.007812 52.320312 74.304688 52.5625 75.445312 C 52.757812 76.375 53.625 77.242188 54.554688 77.4375 C 56.0625 77.757812 57.632812 76.328125 57.476562 74.789062 C 57.390625 73.96875 56.773438 73.125 55.992188 72.742188 C 55.515625 72.515625 54.78125 72.460938 54.296875 72.617188 Z M 64.296875 72.617188 C 63.117188 73.007812 62.320312 74.304688 62.5625 75.445312 C 62.757812 76.375 63.625 77.242188 64.554688 77.4375 C 66.0625 77.757812 67.632812 76.328125 67.476562 74.789062 C 67.390625 73.96875 66.773438 73.125 65.992188 72.742188 C 65.515625 72.515625 64.78125 72.460938 64.296875 72.617188 Z M 74.296875 72.617188 C 73.117188 73.007812 72.320312 74.304688 72.5625 75.445312 C 72.757812 76.375 73.625 77.242188 74.554688 77.4375 C 76.0625 77.757812 77.632812 76.328125 77.476562 74.789062 C 77.390625 73.96875 76.773438 73.125 75.992188 72.742188 C 75.515625 72.515625 74.78125 72.460938 74.296875 72.617188 Z M 84.296875 72.617188 C 83.476562 72.890625 82.734375 73.71875 82.5625 74.554688 C 82.226562 76.164062 83.835938 77.773438 85.445312 77.4375 C 86.65625 77.1875 87.59375 75.953125 87.476562 74.789062 C 87.390625 73.96875 86.773438 73.125 85.992188 72.742188 C 85.515625 72.515625 84.78125 72.460938 84.296875 72.617188 Z M 94.296875 72.617188 C 93.476562 72.890625 92.734375 73.71875 92.5625 74.554688 C 92.226562 76.164062 93.835938 77.773438 95.445312 77.4375 C 96.65625 77.1875 97.59375 75.953125 97.476562 74.789062 C 97.390625 73.96875 96.773438 73.125 95.992188 72.742188 C 95.515625 72.515625 94.78125 72.460938 94.296875 72.617188 Z M 4.296875 82.617188 C 3.476562 82.890625 2.734375 83.71875 2.5625 84.554688 C 2.226562 86.164062 3.835938 87.773438 5.445312 87.4375 C 6.65625 87.1875 7.59375 85.953125 7.476562 84.789062 C 7.390625 83.96875 6.773438 83.125 5.992188 82.742188 C 5.515625 82.515625 4.78125 82.460938 4.296875 82.617188 Z M 14.296875 82.617188 C 13.476562 82.890625 12.734375 83.71875 12.5625 84.554688 C 12.226562 86.164062 13.835938 87.773438 15.445312 87.4375 C 16.65625 87.1875 17.59375 85.953125 17.476562 84.789062 C 17.390625 83.96875 16.773438 83.125 15.992188 82.742188 C 15.515625 82.515625 14.78125 82.460938 14.296875 82.617188 Z M 24.296875 82.617188 C 23.476562 82.890625 22.734375 83.71875 22.5625 84.554688 C 22.367188 85.46875 22.8125 86.460938 23.671875 87.046875 C 24.507812 87.625 25.460938 87.632812 26.304688 87.070312 C 27.6875 86.148438 27.875 84.429688 26.71875 83.28125 C 26.054688 82.609375 25.101562 82.351562 24.296875 82.617188 Z M 34.296875 82.617188 C 33.476562 82.890625 32.734375 83.71875 32.5625 84.554688 C 32.367188 85.46875 32.8125 86.460938 33.671875 87.046875 C 34.507812 87.625 35.460938 87.632812 36.304688 87.070312 C 37.6875 86.148438 37.875 84.429688 36.71875 83.28125 C 36.054688 82.609375 35.101562 82.351562 34.296875 82.617188 Z M 44.296875 82.617188 C 43.476562 82.890625 42.734375 83.71875 42.5625 84.554688 C 42.226562 86.164062 43.835938 87.773438 45.445312 87.4375 C 46.65625 87.1875 47.59375 85.953125 47.476562 84.789062 C 47.390625 83.96875 46.773438 83.125 45.992188 82.742188 C 45.515625 82.515625 44.78125 82.460938 44.296875 82.617188 Z M 54.296875 82.617188 C 53.476562 82.890625 52.734375 83.71875 52.5625 84.554688 C 52.226562 86.164062 53.835938 87.773438 55.445312 87.4375 C 56.65625 87.1875 57.59375 85.953125 57.476562 84.789062 C 57.390625 83.96875 56.773438 83.125 55.992188 82.742188 C 55.515625 82.515625 54.78125 82.460938 54.296875 82.617188 Z M 64.296875 82.617188 C 63.476562 82.890625 62.734375 83.71875 62.5625 84.554688 C 62.226562 86.164062 63.835938 87.773438 65.445312 87.4375 C 66.65625 87.1875 67.59375 85.953125 67.476562 84.789062 C 67.390625 83.96875 66.773438 83.125 65.992188 82.742188 C 65.515625 82.515625 64.78125 82.460938 64.296875 82.617188 Z M 74.296875 82.617188 C 73.476562 82.890625 72.734375 83.71875 72.5625 84.554688 C 72.226562 86.164062 73.835938 87.773438 75.445312 87.4375 C 76.65625 87.1875 77.59375 85.953125 77.476562 84.789062 C 77.390625 83.96875 76.773438 83.125 75.992188 82.742188 C 75.515625 82.515625 74.78125 82.460938 74.296875 82.617188 Z M 84.296875 82.617188 C 83.476562 82.890625 82.734375 83.71875 82.5625 84.554688 C 82.226562 86.164062 83.835938 87.773438 85.445312 87.4375 C 86.65625 87.1875 87.59375 85.953125 87.476562 84.789062 C 87.390625 83.96875 86.773438 83.125 85.992188 82.742188 C 85.515625 82.515625 84.78125 82.460938 84.296875 82.617188 Z M 94.296875 82.617188 C 93.476562 82.890625 92.734375 83.71875 92.5625 84.554688 C 92.226562 86.164062 93.835938 87.773438 95.445312 87.4375 C 96.65625 87.1875 97.59375 85.953125 97.476562 84.789062 C 97.390625 83.96875 96.773438 83.125 95.992188 82.742188 C 95.515625 82.515625 94.78125 82.460938 94.296875 82.617188 Z M 4.296875 92.617188 C 3.476562 92.890625 2.734375 93.71875 2.5625 94.554688 C 2.226562 96.164062 3.835938 97.773438 5.445312 97.4375 C 6.65625 97.1875 7.59375 95.953125 7.476562 94.789062 C 7.390625 93.96875 6.773438 93.125 5.992188 92.742188 C 5.515625 92.515625 4.78125 92.460938 4.296875 92.617188 Z M 14.296875 92.617188 C 13.476562 92.890625 12.734375 93.71875 12.5625 94.554688 C 12.226562 96.164062 13.835938 97.773438 15.445312 97.4375 C 16.65625 97.1875 17.59375 95.953125 17.476562 94.789062 C 17.390625 93.96875 16.773438 93.125 15.992188 92.742188 C 15.515625 92.515625 14.78125 92.460938 14.296875 92.617188 Z M 24.296875 92.617188 C 23.476562 92.890625 22.734375 93.71875 22.5625 94.554688 C 22.226562 96.164062 23.835938 97.773438 25.445312 97.4375 C 26.65625 97.1875 27.59375 95.953125 27.476562 94.789062 C 27.390625 93.96875 26.773438 93.125 25.992188 92.742188 C 25.515625 92.515625 24.78125 92.460938 24.296875 92.617188 Z M 34.296875 92.617188 C 33.476562 92.890625 32.734375 93.71875 32.5625 94.554688 C 32.226562 96.164062 33.835938 97.773438 35.445312 97.4375 C 36.65625 97.1875 37.59375 95.953125 37.476562 94.789062 C 37.390625 93.96875 36.773438 93.125 35.992188 92.742188 C 35.515625 92.515625 34.78125 92.460938 34.296875 92.617188 Z M 44.296875 92.617188 C 43.476562 92.890625 42.734375 93.71875 42.5625 94.554688 C 42.226562 96.164062 43.835938 97.773438 45.445312 97.4375 C 46.65625 97.1875 47.59375 95.953125 47.476562 94.789062 C 47.390625 93.96875 46.773438 93.125 45.992188 92.742188 C 45.515625 92.515625 44.78125 92.460938 44.296875 92.617188 Z M 54.296875 92.617188 C 53.476562 92.890625 52.734375 93.71875 52.5625 94.554688 C 52.226562 96.164062 53.835938 97.773438 55.445312 97.4375 C 56.65625 97.1875 57.59375 95.953125 57.476562 94.789062 C 57.390625 93.96875 56.773438 93.125 55.992188 92.742188 C 55.515625 92.515625 54.78125 92.460938 54.296875 92.617188 Z M 64.296875 92.617188 C 63.476562 92.890625 62.734375 93.71875 62.5625 94.554688 C 62.226562 96.164062 63.835938 97.773438 65.445312 97.4375 C 66.65625 97.1875 67.59375 95.953125 67.476562 94.789062 C 67.390625 93.96875 66.773438 93.125 65.992188 92.742188 C 65.515625 92.515625 64.78125 92.460938 64.296875 92.617188 Z M 74.296875 92.617188 C 73.476562 92.890625 72.734375 93.71875 72.5625 94.554688 C 72.226562 96.164062 73.835938 97.773438 75.445312 97.4375 C 76.65625 97.1875 77.59375 95.953125 77.476562 94.789062 C 77.390625 93.96875 76.773438 93.125 75.992188 92.742188 C 75.515625 92.515625 74.78125 92.460938 74.296875 92.617188 Z M 84.296875 92.617188 C 83.476562 92.890625 82.734375 93.71875 82.5625 94.554688 C 82.226562 96.164062 83.835938 97.773438 85.445312 97.4375 C 86.65625 97.1875 87.59375 95.953125 87.476562 94.789062 C 87.390625 93.96875 86.773438 93.125 85.992188 92.742188 C 85.515625 92.515625 84.78125 92.460938 84.296875 92.617188 Z M 94.296875 92.617188 C 93.476562 92.890625 92.734375 93.71875 92.5625 94.554688 C 92.226562 96.164062 93.835938 97.773438 95.445312 97.4375 C 96.65625 97.1875 97.59375 95.953125 97.476562 94.789062 C 97.390625 93.96875 96.773438 93.125 95.992188 92.742188 C 95.515625 92.515625 94.78125 92.460938 94.296875 92.617188 Z M 94.296875 92.617188"/>
</svg>
