<?xml version="1.0" encoding="UTF-8"?>
<svg xmlns="http://www.w3.org/2000/svg" xmlns:xlink="http://www.w3.org/1999/xlink" width="100px" height="100px" viewBox="0 0 100 100" version="1.1">
<g id="surface1">
<path style=" stroke:none;fill-rule:nonzero;fill:rgb(0%,0%,0%);fill-opacity:1;" d="M 99.0625 46.109375 C 99.28125 46.101562 99.476562 46.273438 99.5 46.503906 C 99.5 46.734375 99.324219 46.9375 99.105469 46.949219 C 98.863281 46.964844 98.667969 46.789062 98.667969 46.558594 C 98.644531 46.328125 98.820312 46.128906 99.0625 46.113281 M 98.976562 44.746094 C 99.214844 44.730469 99.410156 44.90625 99.410156 45.136719 C 99.433594 45.367188 99.257812 45.570312 99.015625 45.585938 C 98.800781 45.597656 98.601562 45.425781 98.578125 45.195312 C 98.578125 44.964844 98.753906 44.765625 98.976562 44.746094 M 98.90625 43.414062 C 99.019531 43.402344 99.125 43.441406 99.207031 43.515625 C 99.292969 43.585938 99.339844 43.691406 99.34375 43.800781 C 99.367188 44.03125 99.179688 44.234375 98.953125 44.25 C 98.722656 44.265625 98.523438 44.089844 98.511719 43.855469 C 98.492188 43.625 98.679688 43.429688 98.90625 43.414062 M 98.84375 42.050781 C 99.0625 42.027344 99.257812 42.203125 99.28125 42.429688 C 99.28125 42.664062 99.105469 42.863281 98.886719 42.882812 C 98.644531 42.898438 98.449219 42.714844 98.449219 42.492188 C 98.425781 42.261719 98.601562 42.066406 98.84375 42.050781 M 98.753906 40.59375 C 98.984375 40.582031 99.179688 40.757812 99.191406 40.988281 C 99.214844 41.214844 99.027344 41.414062 98.800781 41.429688 C 98.6875 41.4375 98.582031 41.402344 98.496094 41.328125 C 98.414062 41.253906 98.367188 41.152344 98.359375 41.042969 C 98.351562 40.8125 98.523438 40.613281 98.753906 40.59375 M 91.5625 44.773438 C 91.933594 44.753906 92.25 45.039062 92.261719 45.40625 C 92.285156 45.777344 92.011719 46.09375 91.636719 46.121094 C 91.265625 46.144531 90.960938 45.863281 90.9375 45.496094 C 90.917969 45.132812 91.199219 44.808594 91.5625 44.773438 M 91.441406 42.597656 C 91.8125 42.570312 92.132812 42.847656 92.144531 43.21875 C 92.164062 43.589844 91.886719 43.90625 91.519531 43.9375 C 91.15625 43.960938 90.828125 43.679688 90.804688 43.3125 C 90.796875 42.941406 91.078125 42.625 91.441406 42.597656 M 91.332031 40.457031 C 91.703125 40.429688 92.011719 40.707031 92.03125 41.078125 C 92.054688 41.445312 91.769531 41.769531 91.398438 41.796875 C 91.035156 41.820312 90.71875 41.539062 90.695312 41.171875 C 90.675781 40.804688 90.960938 40.484375 91.332031 40.457031 M 91.222656 38.277344 C 91.574219 38.246094 91.902344 38.523438 91.921875 38.890625 C 91.933594 39.261719 91.648438 39.585938 91.289062 39.609375 C 90.917969 39.632812 90.597656 39.351562 90.585938 38.988281 C 90.566406 38.617188 90.851562 38.296875 91.222656 38.277344 M 91.089844 35.949219 C 91.453125 35.929688 91.769531 36.207031 91.792969 36.574219 C 91.8125 36.941406 91.527344 37.265625 91.15625 37.292969 C 90.785156 37.3125 90.476562 37.035156 90.457031 36.660156 C 90.433594 36.296875 90.71875 35.976562 91.09375 35.949219 M 83.777344 44.007812 C 84.28125 43.980469 84.71875 44.363281 84.742188 44.867188 C 84.761719 45.378906 84.378906 45.820312 83.886719 45.851562 C 83.644531 45.871094 83.40625 45.789062 83.222656 45.628906 C 83.039062 45.46875 82.925781 45.242188 82.914062 45 C 82.878906 44.492188 83.273438 44.046875 83.777344 44.007812 M 83.625 41.007812 C 84.117188 40.972656 84.554688 41.351562 84.585938 41.863281 C 84.609375 42.378906 84.214844 42.808594 83.710938 42.847656 C 83.210938 42.882812 82.769531 42.496094 82.75 41.992188 C 82.726562 41.484375 83.109375 41.042969 83.625 41.007812 M 83.449219 38.070312 C 83.964844 38.03125 84.390625 38.414062 84.414062 38.917969 C 84.457031 39.425781 84.0625 39.871094 83.558594 39.910156 C 83.054688 39.941406 82.617188 39.550781 82.59375 39.050781 C 82.5625 38.546875 82.945312 38.101562 83.449219 38.070312 M 83.296875 35.070312 C 83.800781 35.023438 84.238281 35.414062 84.257812 35.914062 C 84.28125 36.425781 83.886719 36.867188 83.394531 36.902344 C 82.878906 36.9375 82.453125 36.546875 82.429688 36.042969 C 82.398438 35.535156 82.792969 35.097656 83.296875 35.070312 M 83.121094 31.867188 C 83.625 31.839844 84.0625 32.226562 84.085938 32.730469 C 84.117188 33.234375 83.734375 33.671875 83.21875 33.710938 C 82.714844 33.746094 82.277344 33.363281 82.257812 32.851562 C 82.222656 32.347656 82.617188 31.910156 83.121094 31.867188 M 75.71875 43.824219 C 76.378906 43.785156 76.921875 44.269531 76.957031 44.917969 C 76.988281 45.5625 76.496094 46.128906 75.851562 46.171875 C 75.214844 46.210938 74.65625 45.726562 74.625 45.082031 C 74.589844 44.4375 75.085938 43.871094 75.71875 43.824219 M 75.523438 40 C 76.15625 39.953125 76.726562 40.445312 76.746094 41.089844 C 76.78125 41.742188 76.289062 42.296875 75.644531 42.351562 C 75.007812 42.386719 74.449219 41.902344 74.417969 41.253906 C 74.382812 40.609375 74.878906 40.046875 75.523438 40 M 75.316406 36.261719 C 75.960938 36.214844 76.507812 36.707031 76.550781 37.347656 C 76.585938 37.988281 76.082031 38.554688 75.457031 38.605469 C 74.800781 38.648438 74.253906 38.15625 74.210938 37.511719 C 74.175781 36.867188 74.667969 36.304688 75.316406 36.261719 M 75.117188 32.445312 C 75.753906 32.386719 76.3125 32.878906 76.332031 33.519531 C 76.378906 34.171875 75.871094 34.730469 75.238281 34.773438 C 74.601562 34.824219 74.035156 34.324219 74.011719 33.683594 C 73.980469 33.039062 74.472656 32.480469 75.117188 32.445312 M 74.886719 28.375 C 75.535156 28.332031 76.089844 28.824219 76.113281 29.46875 C 76.15625 30.117188 75.664062 30.667969 75.019531 30.71875 C 74.382812 30.761719 73.816406 30.273438 73.792969 29.621094 C 73.75 28.976562 74.253906 28.425781 74.886719 28.375 M 67.441406 44.234375 C 68.230469 44.191406 68.898438 44.78125 68.941406 45.5625 C 68.976562 46.351562 68.382812 47.03125 67.605469 47.085938 C 66.828125 47.140625 66.152344 46.546875 66.105469 45.761719 C 66.0625 44.984375 66.664062 44.292969 67.441406 44.234375 M 67.203125 39.597656 C 67.96875 39.535156 68.648438 40.132812 68.691406 40.921875 C 68.734375 41.707031 68.140625 42.386719 67.355469 42.441406 C 66.578125 42.492188 65.910156 41.902344 65.867188 41.117188 C 65.824219 40.335938 66.414062 39.652344 67.203125 39.597656 M 66.949219 35.054688 C 67.738281 34.992188 68.40625 35.589844 68.449219 36.371094 C 68.492188 37.15625 67.878906 37.839844 67.113281 37.898438 C 66.324219 37.953125 65.65625 37.351562 65.613281 36.570312 C 65.558594 35.785156 66.171875 35.109375 66.949219 35.054688 M 66.707031 30.421875 C 67.488281 30.34375 68.152344 30.949219 68.199219 31.730469 C 68.230469 32.519531 67.628906 33.195312 66.851562 33.246094 C 66.074219 33.304688 65.394531 32.703125 65.363281 31.925781 C 65.320312 31.144531 65.921875 30.464844 66.707031 30.421875 M 66.433594 25.472656 C 66.808594 25.453125 67.175781 25.578125 67.457031 25.828125 C 67.734375 26.078125 67.902344 26.429688 67.925781 26.804688 C 67.96875 27.585938 67.378906 28.257812 66.589844 28.324219 C 65.8125 28.375 65.132812 27.777344 65.101562 26.996094 C 65.054688 26.210938 65.648438 25.535156 66.433594 25.472656 M 58.980469 45.261719 C 59.898438 45.207031 60.675781 45.910156 60.730469 46.832031 C 60.785156 47.753906 60.085938 48.558594 59.164062 48.617188 C 58.726562 48.648438 58.289062 48.5 57.957031 48.207031 C 57.628906 47.914062 57.425781 47.5 57.402344 47.058594 C 57.347656 46.144531 58.050781 45.332031 58.980469 45.261719 M 58.683594 39.808594 C 59.605469 39.738281 60.390625 40.441406 60.433594 41.363281 C 60.492188 42.289062 59.789062 43.085938 58.859375 43.160156 C 57.949219 43.214844 57.152344 42.519531 57.105469 41.601562 C 57.0625 40.667969 57.765625 39.871094 58.683594 39.808594 M 58.398438 34.460938 C 59.320312 34.390625 60.097656 35.097656 60.152344 36.015625 C 60.207031 36.929688 59.492188 37.742188 58.574219 37.8125 C 57.664062 37.871094 56.867188 37.167969 56.824219 36.246094 C 56.757812 35.328125 57.46875 34.523438 58.398438 34.460938 M 58.117188 29.007812 C 59.011719 28.921875 59.8125 29.632812 59.855469 30.546875 C 59.910156 31.476562 59.1875 32.277344 58.289062 32.339844 C 57.359375 32.410156 56.558594 31.695312 56.527344 30.78125 C 56.472656 29.863281 57.171875 29.066406 58.117188 29.007812 M 57.785156 23.195312 C 58.707031 23.136719 59.492188 23.835938 59.539062 24.757812 C 59.59375 25.679688 58.882812 26.476562 57.960938 26.546875 C 57.054688 26.601562 56.253906 25.90625 56.210938 24.980469 C 56.164062 24.0625 56.867188 23.261719 57.785156 23.195312 M 50.351562 46.921875 C 51.414062 46.859375 52.3125 47.660156 52.378906 48.722656 C 52.421875 49.785156 51.621094 50.710938 50.558594 50.773438 C 49.507812 50.851562 48.601562 50.046875 48.546875 48.992188 C 48.480469 47.929688 49.289062 47.003906 50.351562 46.921875 M 50.011719 40.652344 C 51.0625 40.570312 51.984375 41.375 52.039062 42.429688 C 52.09375 43.503906 51.285156 44.414062 50.222656 44.5 C 49.167969 44.566406 48.261719 43.769531 48.195312 42.707031 C 48.152344 41.644531 48.960938 40.71875 50.011719 40.652344 M 49.683594 34.507812 C 50.734375 34.417969 51.632812 35.226562 51.699219 36.285156 C 51.765625 37.339844 50.933594 38.273438 49.902344 38.347656 C 48.839844 38.417969 47.933594 37.609375 47.867188 36.554688 C 47.800781 35.492188 48.613281 34.570312 49.683594 34.503906 M 49.355469 28.234375 C 50.398438 28.132812 51.304688 28.949219 51.371094 30 C 51.414062 31.066406 50.605469 31.988281 49.554688 32.058594 C 48.492188 32.140625 47.582031 31.320312 47.539062 30.273438 C 47.472656 29.210938 48.285156 28.292969 49.355469 28.234375 M 48.984375 21.542969 C 50.035156 21.476562 50.945312 22.28125 51 23.339844 C 51.0625 24.398438 50.253906 25.316406 49.179688 25.398438 C 48.128906 25.460938 47.222656 24.664062 47.175781 23.597656 C 47.113281 22.539062 47.921875 21.621094 48.984375 21.542969 M 41.605469 49.226562 C 42.808594 49.15625 43.828125 50.0625 43.894531 51.257812 C 43.949219 52.460938 43.039062 53.5 41.84375 53.582031 C 40.652344 53.664062 39.632812 52.757812 39.566406 51.5625 C 39.503906 50.363281 40.410156 49.320312 41.605469 49.226562 M 41.230469 42.132812 C 42.414062 42.039062 43.457031 42.953125 43.511719 44.152344 C 43.574219 45.363281 42.65625 46.390625 41.453125 46.484375 C 40.269531 46.558594 39.238281 45.65625 39.175781 44.457031 C 39.109375 43.253906 40.027344 42.214844 41.230469 42.132812 M 40.839844 35.183594 C 42.054688 35.085938 43.058594 36 43.136719 37.199219 C 43.203125 38.390625 42.273438 39.445312 41.101562 39.53125 C 39.898438 39.613281 38.867188 38.699219 38.800781 37.5 C 38.738281 36.300781 39.644531 35.261719 40.839844 35.183594 M 40.476562 28.097656 C 41.648438 27.980469 42.6875 28.898438 42.742188 30.09375 C 42.808594 31.304688 41.890625 32.339844 40.707031 32.417969 C 39.503906 32.507812 38.472656 31.589844 38.429688 30.398438 C 38.363281 29.199219 39.273438 28.167969 40.476562 28.097656 M 40.050781 20.535156 C 41.253906 20.457031 42.285156 21.367188 42.351562 22.566406 C 42.414062 23.757812 41.496094 24.792969 40.289062 24.894531 C 39.109375 24.964844 38.066406 24.054688 38.011719 22.855469 C 37.949219 21.664062 38.867188 20.625 40.050781 20.535156 M 32.78125 52.175781 C 33.421875 52.136719 34.050781 52.351562 34.527344 52.777344 C 35.007812 53.203125 35.296875 53.800781 35.332031 54.441406 C 35.410156 55.785156 34.378906 56.949219 33.066406 57.039062 C 31.71875 57.128906 30.570312 56.117188 30.503906 54.78125 C 30.4375 53.445312 31.445312 52.273438 32.78125 52.175781 M 32.363281 44.265625 C 33.679688 44.164062 34.839844 45.179688 34.90625 46.515625 C 34.96875 47.867188 33.960938 49.019531 32.617188 49.121094 C 31.292969 49.210938 30.152344 48.191406 30.066406 46.859375 C 30 45.519531 31.027344 44.351562 32.363281 44.265625 M 31.9375 36.515625 C 33.285156 36.40625 34.398438 37.429688 34.488281 38.765625 C 34.566406 40.09375 33.523438 41.265625 32.210938 41.371094 C 30.875 41.457031 29.738281 40.433594 29.660156 39.09375 C 29.582031 37.761719 30.589844 36.601562 31.9375 36.515625 M 31.53125 28.609375 C 32.847656 28.484375 33.984375 29.511719 34.0625 30.839844 C 34.136719 32.183594 33.097656 33.34375 31.773438 33.433594 C 30.4375 33.53125 29.300781 32.503906 29.234375 31.175781 C 29.167969 29.839844 30.175781 28.6875 31.53125 28.609375 M 31.050781 20.175781 C 31.691406 20.132812 32.320312 20.351562 32.796875 20.777344 C 33.277344 21.203125 33.566406 21.800781 33.601562 22.441406 C 33.679688 23.777344 32.660156 24.925781 31.3125 25.035156 C 30 25.117188 28.839844 24.105469 28.773438 22.761719 C 28.695312 21.429688 29.714844 20.273438 31.050781 20.175781 M 23.921875 55.785156 C 25.402344 55.695312 26.648438 56.8125 26.738281 58.289062 C 26.8125 59.769531 25.6875 61.050781 24.21875 61.148438 C 22.75 61.253906 21.480469 60.128906 21.40625 58.65625 C 21.328125 57.183594 22.445312 55.898438 23.921875 55.785156 M 23.453125 47.058594 C 24.917969 46.941406 26.191406 48.066406 26.265625 49.542969 C 26.34375 51.027344 25.226562 52.296875 23.738281 52.417969 C 22.28125 52.503906 21.011719 51.394531 20.933594 49.921875 C 20.847656 48.4375 21.984375 47.15625 23.453125 47.058594 M 22.992188 38.5 C 24.46875 38.386719 25.707031 39.507812 25.796875 40.988281 C 25.882812 42.453125 24.746094 43.746094 23.289062 43.855469 C 21.820312 43.953125 20.5625 42.828125 20.476562 41.351562 C 20.386719 39.882812 21.503906 38.601562 22.992188 38.5 M 22.53125 29.78125 C 23.976562 29.644531 25.246094 30.777344 25.335938 32.238281 C 25.402344 33.726562 24.261719 35.003906 22.816406 35.109375 C 21.339844 35.21875 20.058594 34.078125 20.003906 32.617188 C 19.925781 31.144531 21.042969 29.863281 22.53125 29.78125 M 22.007812 20.46875 C 23.476562 20.382812 24.746094 21.5 24.832031 22.972656 C 24.917969 24.445312 23.78125 25.71875 22.300781 25.835938 C 20.847656 25.925781 19.566406 24.8125 19.5 23.332031 C 19.414062 21.859375 20.539062 20.578125 22.007812 20.46875 M 15.066406 60.058594 C 16.675781 59.960938 18.042969 61.179688 18.132812 62.796875 C 18.21875 64.410156 16.992188 65.816406 15.394531 65.921875 C 13.773438 66.03125 12.394531 64.808594 12.308594 63.199219 C 12.21875 61.59375 13.445312 60.179688 15.066406 60.058594 M 14.539062 50.511719 C 16.140625 50.386719 17.539062 51.617188 17.628906 53.226562 C 17.703125 54.859375 16.476562 56.242188 14.859375 56.375 C 13.269531 56.472656 11.871094 55.253906 11.78125 53.644531 C 11.695312 52.023438 12.941406 50.617188 14.539062 50.511719 M 14.039062 41.15625 C 15.65625 41.03125 17.015625 42.257812 17.101562 43.871094 C 17.210938 45.476562 15.953125 46.894531 14.367188 47.015625 C 12.765625 47.117188 11.375 45.890625 11.277344 44.277344 C 11.191406 42.667969 12.417969 41.261719 14.039062 41.15625 M 13.535156 31.617188 C 15.121094 31.460938 16.511719 32.703125 16.597656 34.308594 C 16.6875 35.933594 15.4375 37.332031 13.839844 37.441406 C 12.230469 37.558594 10.839844 36.3125 10.773438 34.71875 C 10.6875 33.105469 11.914062 31.707031 13.535156 31.617188 M 12.964844 21.433594 C 14.5625 21.335938 15.964844 22.5625 16.050781 24.171875 C 16.140625 25.78125 14.902344 27.171875 13.292969 27.300781 C 11.695312 27.402344 10.292969 26.179688 10.226562 24.558594 C 10.117188 22.949219 11.367188 21.554688 12.964844 21.433594 M 6.242188 64.996094 C 7.992188 64.894531 9.480469 66.222656 9.570312 67.976562 C 9.65625 69.726562 8.320312 71.253906 6.59375 71.367188 C 4.839844 71.488281 3.328125 70.160156 3.242188 68.414062 C 3.152344 66.664062 4.492188 65.132812 6.242188 64.996094 M 5.671875 54.632812 C 7.414062 54.496094 8.933594 55.832031 9.023438 57.585938 C 9.109375 59.351562 7.773438 60.859375 6.023438 61 C 4.28125 61.109375 2.78125 59.78125 2.671875 58.035156 C 2.585938 56.277344 3.929688 54.75 5.671875 54.632812 M 5.125 44.480469 C 6.878906 44.335938 8.367188 45.671875 8.453125 47.425781 C 8.5625 49.164062 7.207031 50.710938 5.476562 50.835938 C 3.746094 50.949219 2.234375 49.613281 2.136719 47.863281 C 2.039062 46.117188 3.375 44.59375 5.125 44.480469 M 4.578125 34.117188 C 6.308594 33.953125 7.820312 35.300781 7.90625 37.039062 C 7.992188 38.808594 6.648438 40.324219 4.90625 40.441406 C 3.164062 40.570312 1.652344 39.21875 1.578125 37.488281 C 1.488281 35.730469 2.824219 34.222656 4.578125 34.117188 M 3.964844 23.066406 C 5.707031 22.957031 7.207031 24.285156 7.304688 26.039062 C 7.402344 27.785156 6.066406 29.292969 4.316406 29.4375 C 2.574219 29.546875 1.050781 28.214844 0.988281 26.457031 C 0.878906 24.710938 2.214844 23.195312 3.964844 23.066406 "/>
</g>
</svg>
