<svg xmlns="http://www.w3.org/2000/svg" viewBox="0 0 496 496" style="enable-background:new 0 0 496 496" xml:space="preserve"><path style="fill:#7fd371" d="M248.08 0h-.152C111.216 0 0 111.224 0 247.992c0 54.232 17.504 104.528 47.224 145.36l-30.888 92.152 95.312-30.472c39.2 25.952 86 40.968 136.432 40.968C384.8 496 496 384.752 496 248 496 111.232 384.8 0 248.08 0zm144.288 350.2c-5.96 16.904-29.728 30.904-48.672 35-12.976 2.76-29.88 4.952-86.864-18.672-72.888-30.176-119.824-104.24-123.464-109.064-3.504-4.808-29.448-39.216-29.448-74.792s18.072-52.928 25.368-60.368c5.976-6.12 15.888-8.872 25.36-8.872 3.072 0 5.824.144 8.312.272 7.288.304 10.928.752 15.736 12.256 5.976 14.424 20.552 50.008 22.304 53.648 1.744 3.648 3.504 8.6 1.016 13.408-2.336 4.96-4.368 7.168-8.008 11.384-3.656 4.216-7.16 7.44-10.792 11.952-3.352 3.936-7.152 8.168-2.912 15.456 4.232 7.16 18.8 30.912 40.224 50 27.688 24.64 50.136 32.52 58.16 35.872 5.968 2.488 13.12 1.888 17.496-2.768 5.536-5.984 12.392-15.888 19.384-25.656 4.952-7.016 11.224-7.88 17.776-5.408 6.712 2.328 42.144 19.832 49.432 23.48 7.272 3.648 12.088 5.392 13.832 8.456 1.744 3.08 1.744 17.504-4.24 34.416z"/><path style="fill:#6dbc61" d="M0 247.992c0 54.232 17.504 104.528 47.224 145.36l-30.888 92.152 95.312-30.472c39.2 25.952 86 40.968 136.432 40.968C384.8 496 496 384.752 496 248 496 111.232 384.8 0 248.08 0h-.152m144.44 350.2c-5.96 16.904-29.728 30.904-48.672 35-12.976 2.76-29.88 4.952-86.864-18.672-72.888-30.176-119.824-104.24-123.464-109.064-3.504-4.808-29.448-39.216-29.448-74.792s18.072-52.928 25.368-60.368c5.976-6.12 15.888-8.872 25.36-8.872 3.072 0 5.824.144 8.312.272 7.288.304 10.928.752 15.736 12.256 5.976 14.424 20.552 50.008 22.304 53.648 1.744 3.648 3.504 8.6 1.016 13.408-2.336 4.96-4.368 7.168-8.008 11.384-3.656 4.216-7.16 7.44-10.792 11.952-3.352 3.936-7.152 8.168-2.912 15.456 4.232 7.16 18.8 30.912 40.224 50 27.688 24.64 50.136 32.52 58.16 35.872 5.968 2.488 13.12 1.888 17.496-2.768 5.536-5.984 12.392-15.888 19.384-25.656 4.952-7.016 11.224-7.88 17.776-5.408 6.712 2.328 42.144 19.832 49.432 23.48 7.272 3.648 12.088 5.392 13.832 8.456 1.744 3.08 1.744 17.504-4.24 34.416z"/><path style="fill:#549b45" d="M327.368 13.08C390.6 67.136 431.872 149.76 431.872 219.712c0 38.528-12.552 74.576-34.352 105.544-.288 6.392-1.704 15.216-5.16 24.944-5.96 16.904-29.728 30.904-48.672 35-3.504.744-7.336 1.432-12.128 1.584-41.504 25.88-92.944 41.2-148.664 41.2-50.176 0-96.856-12.456-135.96-33.832l-30.6 91.352 95.312-30.472c39.2 25.952 86 40.968 136.432 40.968C384.8 496 496 384.752 496 248c0-109.024-70.704-201.76-168.632-234.92z"/><path style="fill:#549b45" d="M333.336 283.856c1.664.576 5.056 2.08 9.344 4.056l-165.728-165.72a44.16 44.16 0 0 1 1.744 3.776c5.976 14.424 20.552 50.008 22.304 53.648 1.744 3.648 3.504 8.6 1.016 13.408-2.336 4.96-4.368 7.168-8.008 11.384-3.656 4.216-7.16 7.44-10.792 11.952-3.352 3.936-7.152 8.168-2.912 15.456 4.232 7.16 18.8 30.912 40.224 50 27.688 24.64 50.136 32.52 58.16 35.872 5.968 2.488 13.12 1.888 17.496-2.768 5.536-5.984 12.392-15.888 19.384-25.656 4.944-7.016 11.224-7.88 17.768-5.408z"/><path style="fill:#5caa4f" d="m103.936 182.896-1.632 1.64 1.784 1.776c-.064-1.136-.152-2.272-.152-3.416z"/></svg>